# xmcd
#
# Track frame offsets:
#	150
#	18104
#	36269
#	48608
#	61472
#	74471
#	88965
#	104209
#	116856
#	133440
#	144960
#	166269
#	183723
#	202380
#	217329
#	232053
#	246893
#	265259
#	279132
#	291820
#	305607
#	318291
#	333835
#
# Disc length: 4664 seconds
#
# Revision: 1
# Processed by: cddbd v1.5.2PL0 Copyright (c) Steve Scherf et al.
# Submitted via: audiograbber 1.83.01
#
DISCID=7c123617
DTITLE=Various Artist - Country-Mix 02
DYEAR=2003
DGENRE=Country
TTITLE0=Alan Jackson - Chattahoochee
TTITLE1=Mindy McCready - Take Me Apart
TTITLE2=Johnny Cash - Sea Of Heartbreak
TTITLE3=Martina McBride - Walk That Line
TTITLE4=Alan Jackson - Don't Rock The Jukebox
TTITLE5=Katja Kaye - Country Roads
TTITLE6=Johnny Cash - Meet Me In Heaven
TTITLE7=Martina McBride - I Can't Sleep
TTITLE8=Alan Jackson - Mercury Blues
TTITLE9=Chely Wright - Feelin' Single And Seen' Double
TTITLE10=LeeAnn Womack - Montgomery To Memphis
TTITLE11=Alan Jackson - Right On The Money
TTITLE12=Shania Twain - Any Man Of Mine
TTITLE13=Johnny Cash - I've Been Anywhere
TTITLE14=Carlene Carter - Every Little Thing
TTITLE15=Sherrie Austin - Time, Love And Money
TTITLE16=Alan Jackson - Drive
TTITLE17=Katja Kaye - Hey, Good Lookin'
TTITLE18=JoDee Messina - Do You Wanna Make ...
TTITLE19=Martina McBride - Anything's Better Than Feelin' ...
TTITLE20=Tim McGraw - Ain't That The Way It Always Ends
TTITLE21=Katja Kaye - What Are You Doing With My ...
TTITLE22=Mary Chapin Carpenter - I Feel Lucky
EXTD=
EXTT0=
EXTT1=
EXTT2=
EXTT3=
EXTT4=
EXTT5=
EXTT6=
EXTT7=
EXTT8=
EXTT9=
EXTT10=
EXTT11=
EXTT12=
EXTT13=
EXTT14=
EXTT15=
EXTT16=
EXTT17=
EXTT18=
EXTT19=
EXTT20=
EXTT21=
EXTT22=
PLAYORDER=
